<svg xmlns="http://www.w3.org/2000/svg" width="512" height="512" viewBox="0 0 512 512">
  <rect width="512" height="512" rx="64" fill="#FFFFFF"/>
  
  <!-- Fan petals - green (left 3) -->
  <path d="M216 250 Q170 140 120 120 Q150 170 160 220 Q175 160 216 250Z" fill="#4CAF50"/>
  <path d="M240 240 Q200 120 165 85 Q185 145 195 210 Q210 140 240 240Z" fill="#43A047"/>
  <path d="M260 235 Q235 100 215 60 Q230 130 238 205 Q248 120 260 235Z" fill="#388E3C"/>
  
  <!-- Fan petals - blue (right 4) -->
  <path d="M270 235 Q280 100 300 55 Q290 130 282 205 Q278 120 270 235Z" fill="#1565C0"/>
  <path d="M290 240 Q315 120 350 80 Q325 145 310 210 Q305 140 290 240Z" fill="#1976D2"/>
  <path d="M310 250 Q355 140 400 120 Q365 170 350 220 Q340 160 310 250Z" fill="#1E88E5"/>
  <path d="M250 242 Q225 130 205 75 Q220 140 230 210 Q238 135 250 242Z" fill="#2196F3"/>
  
  <!-- Blue wave -->
  <path d="M80 310 Q140 270 256 282 Q372 270 432 310 Q380 340 256 348 Q132 340 80 310Z" fill="#1565C0"/>
  
  <!-- Green wave -->
  <path d="M140 340 Q190 318 256 325 Q322 318 372 340 Q330 358 256 363 Q182 358 140 340Z" fill="#4CAF50"/>
  
  <!-- Text: AMIRABLE -->
  <text x="256" y="420" text-anchor="middle" font-family="Arial Black, Arial, sans-serif" font-weight="900" font-size="72" fill="#1565C0" letter-spacing="4">AMIRABLE</text>
  
  <!-- Text: HOTEL & HOSPITALITY -->
  <text x="256" y="468" text-anchor="middle" font-family="Arial, Helvetica, sans-serif" font-weight="800" font-size="36" fill="#1A237E" letter-spacing="3">HOTEL &amp; HOSPITALITY</text>
</svg>
